<svg width="37" height="37" viewBox="0 0 37 37" fill="none" xmlns="http://www.w3.org/2000/svg">
<path d="M25.4414 18.5V25.4375M25.4414 13.8588V13.875M33.5352 10.1496V26.8504C33.5345 28.6221 32.8305 30.321 31.5777 31.5738C30.325 32.8266 28.626 33.5306 26.8543 33.5312H10.1558C8.38371 33.5313 6.68418 32.8275 5.43092 31.5746C4.17765 30.3218 3.47327 28.6225 3.47266 26.8504V10.1519C3.47266 8.3798 4.17645 6.68027 5.42928 5.42701C6.68211 4.17375 8.38139 3.46936 10.1535 3.46875H26.8543C28.626 3.46936 30.325 4.17343 31.5777 5.42619C32.8305 6.67895 33.5345 8.37789 33.5352 10.1496Z" stroke="#F5A97F" stroke-width="2.3125" stroke-linecap="round" stroke-linejoin="round"/>
<path d="M10.4102 25.4375L12.3619 20.2344M12.3619 20.2344L15.6133 11.5625L18.8647 20.2344M12.3619 20.2344H18.8647M20.8164 25.4375L18.8647 20.2344" stroke="#F5A97F" stroke-width="2.3125" stroke-linecap="round" stroke-linejoin="round"/>
</svg>
