<svg width="38" height="37" viewBox="0 0 38 37" fill="none" xmlns="http://www.w3.org/2000/svg">
<path d="M9.63281 3.46875H28.1328C29.6661 3.46875 31.1366 4.07784 32.2208 5.16204C33.305 6.24623 33.9141 7.71672 33.9141 9.25V27.75C33.9141 29.2833 33.305 30.7538 32.2208 31.838C31.1366 32.9222 29.6661 33.5312 28.1328 33.5312H9.63281C8.09953 33.5312 6.62905 32.9222 5.54485 31.838C4.46066 30.7538 3.85156 29.2833 3.85156 27.75V9.25C3.85156 7.71672 4.46066 6.24623 5.54485 5.16204C6.62905 4.07784 8.09953 3.46875 9.63281 3.46875Z" stroke="#C6A0F6" stroke-width="2.3125" stroke-linecap="round" stroke-linejoin="round"/>
<path d="M24.063 26.6625C24.063 28.0038 25.0759 29.0629 26.283 29.056L27.3306 29.0467C28.5377 29.0398 29.5252 28.0038 29.5252 26.6579C29.5252 25.3167 28.5377 24.1951 27.3283 24.1951H26.2853C25.0759 24.1951 24.0885 23.0712 24.0885 21.73C24.0885 20.3887 25.0759 19.3296 26.2853 19.3296H27.3306C28.5377 19.3296 29.5298 20.3887 29.5298 21.7323M16.108 26.6602C16.108 28.0015 17.1209 29.0652 18.328 29.056L19.4033 29.0467C20.6128 29.0398 21.5678 28.0038 21.5678 26.6625C21.5678 25.3213 20.622 24.1974 19.4149 24.1974H18.328C17.1209 24.1974 16.1335 23.0758 16.1335 21.7323C16.1335 20.391 17.1209 19.3342 18.3303 19.3342H19.3733C20.5827 19.3342 21.6025 20.391 21.6025 21.7323M8.26172 26.6625C8.26172 28.0038 9.27459 29.0953 10.4817 29.0953H11.527C12.7341 29.0953 13.7238 28.0385 13.7238 26.6949M13.747 21.767C13.747 20.4257 12.7364 19.3666 11.527 19.3666H10.484C9.27459 19.3666 8.26403 20.4488 8.26403 21.7947V26.6926" stroke="#C6A0F6" stroke-width="1.88238" stroke-linecap="round" stroke-linejoin="round"/>
</svg>
