<svg width="33" height="33" viewBox="0 0 33 33" fill="none" xmlns="http://www.w3.org/2000/svg">
<g clip-path="url(#clip0_212_210)">
<path d="M6.36328 6.69269C6.36328 4.12581 8.44222 2.04688 11.0068 2.04688H16.6863V11.3385H11.0068C8.43991 11.3385 6.36328 9.25725 6.36328 6.69037M27.0093 16.5C27.0093 15.8222 26.8758 15.151 26.6164 14.5248C26.357 13.8986 25.9768 13.3296 25.4975 12.8503C25.0182 12.371 24.4492 11.9908 23.823 11.7314C23.1968 11.472 22.5256 11.3385 21.8478 11.3385C21.17 11.3385 20.4988 11.472 19.8726 11.7314C19.2463 11.9908 18.6773 12.371 18.198 12.8503C17.7188 13.3296 17.3386 13.8986 17.0792 14.5248C16.8198 15.151 16.6863 15.8222 16.6863 16.5C16.6863 17.8689 17.2301 19.1818 18.198 20.1497C19.166 21.1177 20.4789 21.6615 21.8478 21.6615C23.2167 21.6615 24.5295 21.1177 25.4975 20.1497C26.4655 19.1818 27.0093 17.8689 27.0093 16.5ZM6.36328 26.3073C6.36328 23.7404 8.44222 21.6615 11.0068 21.6615H16.6863V25.7916C16.6863 28.6429 14.3738 30.9531 11.5248 30.9531H11.0068C8.43991 30.9531 6.36328 28.8719 6.36328 26.3073Z" fill="#D7E0FF"/>
<path d="M6.36328 6.69269C6.36328 4.12581 8.44222 2.04688 11.0068 2.04688H16.6863V11.3385H11.0068C8.43991 11.3385 6.36328 9.25725 6.36328 6.69037" stroke="#4147D5" stroke-width="2.3125" stroke-linecap="round" stroke-linejoin="round"/>
<path d="M27.0144 6.69269C27.0144 4.12581 24.9355 2.04688 22.3709 2.04688H16.6914V11.3385H22.3709C24.9378 11.3385 27.0144 9.25725 27.0144 6.69037" fill="white"/>
<path d="M27.0093 16.5004C27.0093 15.8225 26.8758 15.1514 26.6164 14.5251C26.357 13.8989 25.9768 13.3299 25.4975 12.8506C25.0182 12.3713 24.4492 11.9912 23.823 11.7318C23.1968 11.4724 22.5256 11.3389 21.8478 11.3389C21.17 11.3389 20.4988 11.4724 19.8726 11.7318C19.2463 11.9912 18.6773 12.3713 18.198 12.8506C17.7188 13.3299 17.3386 13.8989 17.0792 14.5251C16.8198 15.1514 16.6863 15.8225 16.6863 16.5004C16.6863 17.8693 17.2301 19.1821 18.198 20.1501C19.166 21.1181 20.4789 21.6619 21.8478 21.6619C23.2167 21.6619 24.5295 21.1181 25.4975 20.1501C26.4655 19.1821 27.0093 17.8693 27.0093 16.5004ZM6.36328 26.3077C6.36328 23.7408 8.44222 21.6619 11.0068 21.6619H16.6863V25.792C16.6863 28.6433 14.3738 30.9535 11.5248 30.9535H11.0068C8.43991 30.9535 6.36328 28.8722 6.36328 26.3077Z" stroke="#4147D5" stroke-width="2.3125" stroke-linecap="round" stroke-linejoin="round"/>
<path d="M6.36328 16.5004C6.36328 13.6491 8.67347 11.3389 11.5248 11.3389H16.6863V21.6619H11.5248C8.67347 21.6619 6.36328 19.3494 6.36328 16.5004Z" fill="white"/>
<path d="M27.0093 6.69269C27.0093 4.12581 24.9303 2.04688 22.3658 2.04688H16.6863V11.3385M16.6863 11.3385H22.3658C24.9327 11.3385 27.0093 9.25725 27.0093 6.69037M16.6863 11.3385H11.5248C8.67347 11.3385 6.36328 13.6487 6.36328 16.5C6.36328 19.349 8.67347 21.6615 11.5248 21.6615H16.6863V11.3385Z" stroke="#4147D5" stroke-width="2.3125" stroke-linecap="round" stroke-linejoin="round"/>
</g>
<defs>
<clipPath id="clip0_212_210">
<rect width="32.375" height="32.375" fill="white" transform="translate(0.503906 0.3125)"/>
</clipPath>
</defs>
</svg>
