<svg width="38" height="37" viewBox="0 0 38 37" fill="none" xmlns="http://www.w3.org/2000/svg">
<g clip-path="url(#clip0_212_205)">
<path d="M17.9589 4.49725C18.6698 4.0904 19.5957 4.08852 20.3059 4.49725C23.879 6.51635 27.4533 8.53213 31.0258 10.5524C31.6979 10.9309 32.1472 11.6787 32.1404 12.453V24.6001C32.1455 25.4064 31.6516 26.1722 30.9427 26.542C27.3813 28.55 23.8216 30.5603 20.2608 32.5683C19.5354 32.9831 18.5909 32.9511 17.8879 32.5022C16.8203 31.8833 15.7507 31.2673 14.6829 30.649C14.4647 30.5189 14.2187 30.4155 14.0646 30.2039C14.2009 30.0203 14.4445 29.9975 14.6423 29.9173C15.0879 29.7755 15.4974 29.548 15.9067 29.3273C16.0103 29.2565 16.1366 29.2836 16.2359 29.3469C17.1489 29.8704 18.054 30.4092 18.97 30.9277C19.1654 31.0406 19.3633 30.8907 19.5304 30.7976C23.0251 28.8223 26.5242 26.8546 30.0186 24.8788C30.1481 24.8165 30.2196 24.679 30.2091 24.5372C30.2115 20.5301 30.2096 16.5224 30.2104 12.5151C30.2251 12.3544 30.132 12.2064 29.9865 12.1405C26.4375 10.1418 22.8901 8.14016 19.3417 6.14101C19.2803 6.09877 19.2075 6.0761 19.1329 6.07597C19.0583 6.07584 18.9854 6.09826 18.9238 6.14028C15.3752 8.14016 11.8287 10.1438 8.28019 12.1422C8.13523 12.2083 8.03796 12.3538 8.05516 12.5151C8.05588 16.5224 8.05516 20.5301 8.05516 24.5378C8.04896 24.607 8.06415 24.6765 8.09868 24.7368C8.13321 24.7972 8.18542 24.8454 8.24825 24.8751C9.19508 25.4121 10.1432 25.9453 11.0907 26.4805C11.6246 26.7676 12.28 26.9385 12.8682 26.7184C13.3871 26.5322 13.7508 26.0025 13.741 25.4515C13.7459 21.4678 13.7386 17.4835 13.7446 13.5002C13.7316 13.3235 13.8994 13.1774 14.0714 13.1941C14.5264 13.191 14.982 13.1879 15.4369 13.1953C15.6269 13.191 15.7575 13.3814 15.7341 13.5595C15.7322 17.5685 15.739 21.5775 15.7311 25.5864C15.7322 26.6549 15.2933 27.8175 14.305 28.3403C13.0876 28.9709 11.5827 28.8372 10.3799 28.2325C9.33874 27.7127 8.34494 27.0993 7.32224 26.5426C6.61144 26.1748 6.12003 25.406 6.12509 24.6002V12.453C6.11757 11.6627 6.58499 10.9013 7.27773 10.5283C10.8385 8.51884 14.3988 6.50768 17.9589 4.49725Z" fill="#81CD39"/>
<path d="M21.0693 12.9122C22.6223 12.8122 24.2849 12.8529 25.6823 13.6181C26.7644 14.2043 27.3642 15.4348 27.3833 16.6369C27.3531 16.7989 27.1836 16.8884 27.0288 16.8772C26.5783 16.8767 26.1275 16.8835 25.677 16.8742C25.4858 16.8816 25.3748 16.7054 25.3508 16.5364C25.2213 15.9612 24.9075 15.3916 24.3662 15.1141C23.5352 14.6982 22.5717 14.7191 21.6654 14.7278C21.004 14.7628 20.2926 14.8201 19.7321 15.2091C19.3019 15.5038 19.1712 16.0987 19.3247 16.5778C19.4695 16.9218 19.8665 17.0328 20.1914 17.1351C22.0631 17.6246 24.0464 17.5758 25.8821 18.2199C26.6423 18.4826 27.3858 18.9932 27.6459 19.789C27.9863 20.8556 27.8372 22.1304 27.0782 22.9866C26.4628 23.6912 25.5666 24.0748 24.6726 24.283C23.4834 24.5482 22.2493 24.555 21.0416 24.4372C19.906 24.3077 18.7242 24.0094 17.8476 23.2358C17.0979 22.5848 16.7318 21.5705 16.7681 20.5917C16.7768 20.4264 16.9414 20.311 17.0998 20.3246C17.5535 20.321 18.0073 20.3197 18.461 20.3253C18.6422 20.3123 18.7766 20.469 18.7859 20.6398C18.8696 21.1878 19.0755 21.763 19.5533 22.0877C20.4756 22.6828 21.6329 22.642 22.6888 22.6586C23.5635 22.6199 24.5456 22.6082 25.2596 22.0299C25.6362 21.7001 25.7478 21.1483 25.6461 20.6737C25.5358 20.2729 25.1165 20.0861 24.7565 19.964C22.9089 19.3797 20.9034 19.5917 19.0738 18.9308C18.3309 18.6683 17.6126 18.172 17.3273 17.4088C16.9291 16.3288 17.1115 14.9927 17.9499 14.1656C18.7674 13.3425 19.9473 13.0255 21.0693 12.9122Z" fill="#81CD39"/>
</g>
<defs>
<clipPath id="clip0_212_205">
<rect width="37" height="37" fill="white" transform="translate(0.632812)"/>
</clipPath>
</defs>
</svg>
