<svg width="72" height="72" viewBox="0 0 72 72" fill="none" xmlns="http://www.w3.org/2000/svg">
<path opacity="0.3" d="M34.8633 9.92514C39.4843 8.68694 44.4158 10.0083 47.7986 13.3911L56.7314 22.3239C60.1141 25.7066 61.4352 30.6375 60.1972 35.2583L56.9273 47.4616C55.689 52.0824 52.0795 55.6921 47.4587 56.9303L35.2562 60.1999C30.6352 61.4381 25.7038 60.1167 22.3209 56.7339L13.3881 47.8011C10.0054 44.4184 8.68435 39.4876 9.92236 34.8667L13.1922 22.6634C14.4305 18.0426 18.04 14.4329 22.6608 13.1947L34.8633 9.92514Z" stroke="#111111" stroke-width="0.923497"/>
<path d="M36.6191 11.3565C41.3995 10.0756 46.5001 11.4423 49.9996 14.9418L58.9324 23.8746C62.4319 27.3741 63.7986 32.4747 62.5177 37.2551L59.248 49.4576C57.9671 54.238 54.2333 57.9719 49.4529 59.2528L37.2504 62.5224C32.47 63.8033 27.3694 62.4366 23.8699 58.9371L14.9371 50.0043C11.4376 46.5048 10.0709 41.4042 11.3518 36.6238L14.6214 24.4213C15.9023 19.6409 19.6362 15.907 24.4166 14.6261L36.6191 11.3565Z" fill="#111111"/>
<path d="M30.4102 27.2296V48.7812H24.7381V27.2296H30.4102Z" fill="#FDFBF6"/>
<path d="M44.3106 32.0393L49.6855 33.5672L45.637 47.8092C44.476 51.8552 40.5134 53.6718 35.9685 52.3798C32.0107 51.2548 29.3457 48.3529 30.6982 43.6721L36.1439 45.2201C35.7558 46.8164 36.2458 47.8638 37.5212 48.2263C38.827 48.5975 39.77 47.9356 40.2621 46.2813L44.3106 32.0393Z" fill="#BBBBBB"/>
</svg>
