<svg width="38" height="37" viewBox="0 0 38 37" fill="none" xmlns="http://www.w3.org/2000/svg">
<path d="M33.7812 10.1496V26.8504C33.7806 28.6221 33.0766 30.321 31.8238 31.5738C30.571 32.8266 28.8721 33.5306 27.1004 33.5312H10.4019C8.6298 33.5313 6.93027 32.8275 5.67701 31.5746C4.42375 30.3218 3.71936 28.6225 3.71875 26.8504V10.1519C3.71875 8.3798 4.42255 6.68027 5.67537 5.42701C6.9282 4.17375 8.62749 3.46936 10.3996 3.46875H27.1004C28.8721 3.46936 30.571 4.17343 31.8238 5.42619C33.0766 6.67895 33.7806 8.37789 33.7812 10.1496Z" stroke="#8AADF4" stroke-width="2.3125" stroke-linecap="round" stroke-linejoin="round"/>
<path d="M10.6562 25.4375V18.5M10.6562 18.5V11.5625H13.8937C14.3189 11.5625 14.7399 11.6522 15.1327 11.8265C15.5255 12.0009 15.8824 12.2564 16.183 12.5785C16.4836 12.9006 16.7221 13.283 16.8848 13.7038C17.0475 14.1247 17.1312 14.5757 17.1312 15.0312C17.1312 15.4868 17.0475 15.9378 16.8848 16.3587C16.7221 16.7795 16.4836 17.1619 16.183 17.484C15.8824 17.8061 15.5255 18.0616 15.1327 18.236C14.7399 18.4103 14.3189 18.5 13.8937 18.5H10.6562ZM26.8437 16.7656C26.3489 15.7019 25.3337 15.0312 24.2237 15.0312H23.6062C23.2874 15.0312 22.9716 15.0985 22.677 15.2293C22.3825 15.36 22.1148 15.5517 21.8893 15.7932C21.6638 16.0348 21.485 16.3216 21.363 16.6372C21.2409 16.9529 21.1781 17.2912 21.1781 17.6328C21.1781 17.9745 21.2409 18.3128 21.363 18.6284C21.485 18.944 21.6638 19.2308 21.8893 19.4724C22.1148 19.714 22.3825 19.9056 22.677 20.0363C22.9716 20.1671 23.2874 20.2344 23.6062 20.2344H24.4156C24.7345 20.2344 25.0502 20.3017 25.3448 20.4324C25.6394 20.5631 25.9071 20.7548 26.1326 20.9964C26.358 21.2379 26.5369 21.5247 26.6589 21.8404C26.7809 22.156 26.8437 22.4943 26.8437 22.8359C26.8437 23.1776 26.7809 23.5159 26.6589 23.8315C26.5369 24.1471 26.358 24.4339 26.1326 24.6755C25.9071 24.9171 25.6394 25.1087 25.3448 25.2395C25.0502 25.3702 24.7345 25.4375 24.4156 25.4375H23.7982C23.2543 25.4378 22.721 25.2757 22.2582 24.9694C21.7954 24.663 21.4214 24.2246 21.1781 23.7031" stroke="#8AADF4" stroke-width="2.3125" stroke-linecap="round" stroke-linejoin="round"/>
</svg>
