<svg width="65" height="54" viewBox="0 0 65 54" fill="none" xmlns="http://www.w3.org/2000/svg">
<g opacity="0.3" clip-path="url(#clip0_104_2260)">
<path d="M30.0385 31.8017V46.4793C30.0385 48.5179 29.3205 50.2507 27.8846 51.6777C26.4487 53.1047 24.7051 53.8182 22.6538 53.8182H7.88462C5.83333 53.8182 4.08974 53.1047 2.65385 51.6777C1.21795 50.2507 0.5 48.5179 0.5 46.4793V19.5702C0.5 16.9201 1.01923 14.391 2.05769 11.983C3.09615 9.5749 4.5 7.49174 6.26923 5.73347C8.03846 3.97521 10.1346 2.58006 12.5577 1.54804C14.9808 0.516012 17.5256 0 20.1923 0H22.6538C23.3205 0 23.8974 0.24208 24.3846 0.72624C24.8718 1.2104 25.1154 1.78375 25.1154 2.44628V7.33884C25.1154 8.00138 24.8718 8.57473 24.3846 9.05888C23.8974 9.54305 23.3205 9.78512 22.6538 9.78512H20.1923C17.4744 9.78512 15.1538 10.7407 13.2308 12.6519C11.3077 14.563 10.3462 16.8691 10.3462 19.5702V20.7934C10.3462 21.8127 10.7051 22.6791 11.4231 23.3926C12.141 24.1061 13.0128 24.4628 14.0385 24.4628H22.6538C24.7051 24.4628 26.4487 25.1763 27.8846 26.6033C29.3205 28.0303 30.0385 29.7631 30.0385 31.8017ZM64.5 31.8017V46.4793C64.5 48.5179 63.7821 50.2507 62.3462 51.6777C60.9103 53.1047 59.1667 53.8182 57.1154 53.8182H42.3462C40.2949 53.8182 38.5513 53.1047 37.1154 51.6777C35.6795 50.2507 34.9615 48.5179 34.9615 46.4793V19.5702C34.9615 16.9201 35.4808 14.391 36.5192 11.983C37.5577 9.5749 38.9615 7.49174 40.7308 5.73347C42.5 3.97521 44.5962 2.58006 47.0192 1.54804C49.4423 0.516012 51.9872 0 54.6538 0H57.1154C57.7821 0 58.359 0.24208 58.8462 0.72624C59.3333 1.2104 59.5769 1.78375 59.5769 2.44628V7.33884C59.5769 8.00138 59.3333 8.57473 58.8462 9.05888C58.359 9.54305 57.7821 9.78512 57.1154 9.78512H54.6538C51.9359 9.78512 49.6154 10.7407 47.6923 12.6519C45.7692 14.563 44.8077 16.8691 44.8077 19.5702V20.7934C44.8077 21.8127 45.1667 22.6791 45.8846 23.3926C46.6026 24.1061 47.4744 24.4628 48.5 24.4628H57.1154C59.1667 24.4628 60.9103 25.1763 62.3462 26.6033C63.7821 28.0303 64.5 29.7631 64.5 31.8017Z" fill="#00B3F1"/>
</g>
<defs>
<clipPath id="clip0_104_2260">
<rect width="64" height="53.8182" fill="white" transform="translate(0.5)"/>
</clipPath>
</defs>
</svg>
