<svg width="33" height="33" viewBox="0 0 33 33" fill="none" xmlns="http://www.w3.org/2000/svg">
<path d="M5.46638 5.45614H11.6535L13.6474 10.4416L10.4436 12.5775C10.2549 12.7034 10.1003 12.8739 9.9933 13.0739C9.88633 13.2739 9.83038 13.4972 9.83042 13.724C9.83455 13.8535 9.83042 13.7254 9.83042 13.7254V13.7543C9.83123 13.8159 9.83399 13.8775 9.83869 13.9389C9.84695 14.0519 9.86073 14.2049 9.88691 14.3937C9.94066 14.7657 10.044 15.2783 10.2452 15.8819C10.6503 17.0945 11.444 18.664 12.9901 20.2101C14.5362 21.7562 16.1057 22.5499 17.3169 22.955C17.9219 23.1562 18.4331 23.2582 18.8079 23.3133C19.0195 23.3428 19.2324 23.3612 19.4459 23.3684L19.4638 23.3698H19.4748C19.4748 23.3698 19.6292 23.3615 19.4762 23.3698C19.7321 23.3696 19.9828 23.2983 20.2004 23.1637C20.418 23.0291 20.5938 22.8366 20.7081 22.6078L21.6314 20.7613L27.7441 21.781V27.7338C24.8352 28.1541 16.978 28.5689 10.8046 22.3956C4.63133 16.2222 5.04472 8.36366 5.46638 5.45614ZM12.687 14.3937L15.177 12.7346C15.703 12.3837 16.0924 11.8626 16.2798 11.2587C16.4672 10.6548 16.4413 10.0048 16.2063 9.41781L14.2124 4.43231C14.0078 3.92095 13.6546 3.48263 13.1985 3.17389C12.7424 2.86515 12.2043 2.70016 11.6535 2.7002H5.39473C4.14215 2.7002 2.96398 3.5697 2.75867 4.92838C2.29015 8.01779 1.65491 17.1427 8.85619 24.344C16.0575 31.5453 25.1824 30.9087 28.2718 30.4415C29.6305 30.2348 30.5 29.058 30.5 27.8055V21.781C30.5001 21.1286 30.2687 20.4973 29.8471 19.9995C29.4255 19.5017 28.8409 19.1696 28.1974 19.0622L22.0847 18.0439C21.5034 17.9469 20.9062 18.0388 20.3809 18.3061C19.8556 18.5735 19.4299 19.0022 19.1662 19.5294L18.6894 20.4843C18.5208 20.4428 18.3539 20.3945 18.1892 20.3396C17.3349 20.0558 16.1484 19.4715 14.9386 18.2616C13.7287 17.0518 13.1444 15.8653 12.8606 15.0096C12.7928 14.8073 12.7353 14.6018 12.6883 14.3937H12.687Z" fill="white"/>
</svg>
