<svg width="33" height="33" viewBox="0 0 33 33" fill="none" xmlns="http://www.w3.org/2000/svg">
<path d="M16.5 30.2002C8.7678 30.2002 2.5 23.9324 2.5 16.2002C2.5 8.468 8.7678 2.2002 16.5 2.2002C24.2322 2.2002 30.5 8.468 30.5 16.2002C30.5 23.9324 24.2322 30.2002 16.5 30.2002ZM16.5 27.4002C19.4704 27.4002 22.3192 26.2202 24.4196 24.1198C26.52 22.0194 27.7 19.1706 27.7 16.2002C27.7 13.2298 26.52 10.381 24.4196 8.2806C22.3192 6.18019 19.4704 5.0002 16.5 5.0002C13.5296 5.0002 10.6808 6.18019 8.5804 8.2806C6.48 10.381 5.3 13.2298 5.3 16.2002C5.3 19.1706 6.48 22.0194 8.5804 24.1198C10.6808 26.2202 13.5296 27.4002 16.5 27.4002ZM17.9 16.2002H23.5V19.0002H15.1V9.2002H17.9V16.2002Z" fill="white"/>
</svg>
