<svg width="16" height="16" viewBox="0 0 16 16" fill="none" xmlns="http://www.w3.org/2000/svg">
<path d="M6.52036 12.4C6.38246 12.4002 6.24586 12.3765 6.1184 12.3301C5.99095 12.2837 5.87514 12.2156 5.77763 12.1296L1.32124 8.20056C1.22084 8.1152 1.14073 8.01307 1.08558 7.90013C1.03043 7.78718 1.00136 7.66569 1.00005 7.54274C0.998737 7.41979 1.02522 7.29784 1.07795 7.184C1.13068 7.07017 1.2086 6.96673 1.30717 6.87972C1.40574 6.79272 1.52298 6.72388 1.65204 6.67724C1.78111 6.6306 1.91943 6.60709 2.05892 6.60807C2.19841 6.60905 2.33628 6.63451 2.46449 6.68295C2.59269 6.7314 2.70867 6.80188 2.80565 6.89026L6.51931 10.1637L13.206 4.27151C13.403 4.09775 13.6702 4.00009 13.9489 4C14.2276 3.99991 14.4949 4.09741 14.692 4.27104C14.8891 4.44468 14.9999 4.68023 15 4.92587C15.0001 5.17151 14.8895 5.40713 14.6925 5.58088L7.26309 12.1296C7.16558 12.2156 7.04977 12.2837 6.92231 12.3301C6.79486 12.3765 6.65826 12.4002 6.52036 12.4Z" fill="white"/>
</svg>
