<svg width="25" height="24" viewBox="0 0 25 24" fill="none" xmlns="http://www.w3.org/2000/svg">
<path d="M12.5016 24C12.5016 24 4.10156 13.044 4.10156 8.4C4.10156 7.2969 4.31884 6.20459 4.74097 5.18546C5.16311 4.16632 5.78185 3.24032 6.56187 2.4603C7.34188 1.68029 8.26789 1.06155 9.28702 0.639412C10.3062 0.217272 11.3985 0 12.5016 0C13.6047 0 14.697 0.217272 15.7161 0.639412C16.7352 1.06155 17.6612 1.68029 18.4413 2.4603C19.2213 3.24032 19.84 4.16632 20.2621 5.18546C20.6843 6.20459 20.9016 7.2969 20.9016 8.4C20.9016 13.044 12.5016 24 12.5016 24ZM12.5016 10.8C13.1381 10.8 13.7485 10.5471 14.1986 10.0971C14.6487 9.64697 14.9016 9.03652 14.9016 8.4C14.9016 7.76348 14.6487 7.15303 14.1986 6.70294C13.7485 6.25286 13.1381 6 12.5016 6C11.865 6 11.2546 6.25286 10.8045 6.70294C10.3544 7.15303 10.1016 7.76348 10.1016 8.4C10.1016 9.03652 10.3544 9.64697 10.8045 10.0971C11.2546 10.5471 11.865 10.8 12.5016 10.8Z" fill="white"/>
</svg>
