<svg width="41" height="40" viewBox="0 0 41 40" fill="none" xmlns="http://www.w3.org/2000/svg">
<path d="M18.909 15.341L19.6161 14.6339L18.909 15.341C19.331 15.7629 19.9033 16 20.5 16C21.0967 16 21.669 15.7629 22.091 15.341C22.5129 14.919 22.75 14.3467 22.75 13.75V8.75C22.75 8.15326 22.5129 7.58097 22.091 7.15901C21.669 6.73705 21.0967 6.5 20.5 6.5C19.9033 6.5 19.331 6.73705 18.909 7.15901L19.6161 7.86612L18.909 7.15901C18.4871 7.58097 18.25 8.15326 18.25 8.75V13.75C18.25 14.3467 18.4871 14.919 18.909 15.341ZM9 12.5C9 9.45001 10.2116 6.52494 12.3683 4.36827C14.5249 2.2116 17.45 1 20.5 1C23.55 1 26.4751 2.2116 28.6317 4.36827C30.7884 6.52494 32 9.45001 32 12.5V27.5C32 30.55 30.7884 33.4751 28.6317 35.6317C26.4751 37.7884 23.55 39 20.5 39C17.45 39 14.5249 37.7884 12.3683 35.6317C10.2116 33.4751 9 30.55 9 27.5V12.5Z" stroke="white" stroke-width="2"/>
</svg>
