<svg fill="none" height="21" viewBox="0 0 21 21" width="21" xmlns="http://www.w3.org/2000/svg"><path d="m6.3.200195h8.4c3.2 0 5.8 2.600005 5.8 5.800005v8.4c0 1.5383-.6111 3.0135-1.6988 4.1012s-2.5629 1.6988-4.1012 1.6988h-8.4c-3.2 0-5.8-2.6-5.8-5.8v-8.4c0-1.53826.61107-3.01351 1.69878-4.10122 1.08771-1.087715 2.56296-1.698785 4.10122-1.698785zm-.2 2.000005c-.95478 0-1.87045.37928-2.54558 1.05441-.67514.67513-1.05442 1.59081-1.05442 2.54559v8.8c0 1.99 1.61 3.6 3.6 3.6h8.8c.9548 0 1.8705-.3793 2.5456-1.0544.6751-.6752 1.0544-1.5908 1.0544-2.5456v-8.8c0-1.99-1.61-3.6-3.6-3.6zm9.65 1.5c.3315 0 .6495.13169.8839.36611s.3661.55236.3661.88389c0 .33152-.1317.64946-.3661.88388s-.5524.36612-.8839.36612-.6495-.1317-.8839-.36612-.3661-.55236-.3661-.88388c0-.33153.1317-.64947.3661-.88389s.5524-.36611.8839-.36611zm-5.25 1.5c1.3261 0 2.5979.52678 3.5355 1.46446.9377.93768 1.4645 2.20945 1.4645 3.53554 0 1.3261-.5268 2.5978-1.4645 3.5355-.9376.9377-2.2094 1.4645-3.5355 1.4645-1.32608 0-2.59785-.5268-3.53553-1.4645-.93769-.9377-1.46447-2.2094-1.46447-3.5355 0-1.32609.52678-2.59786 1.46447-3.53554.93768-.93768 2.20945-1.46446 3.53553-1.46446zm0 2c-.79565 0-1.55871.31607-2.12132.87867-.56261.56261-.87868 1.32568-.87868 2.12133 0 .7956.31607 1.5587.87868 2.1213s1.32567.8787 2.12132.8787c.7956 0 1.5587-.3161 2.1213-.8787s.8787-1.3257.8787-2.1213c0-.79565-.3161-1.55872-.8787-2.12133-.5626-.5626-1.3257-.87867-2.1213-.87867z" fill="#fff"/></svg>